<svg xmlns="http://www.w3.org/2000/svg" viewBox="0 0 1920 1080">
    <path d="M484.541 576.431q8.017 0 12.641 7.4t4.625 20.349q0 24.665-11.716 38.231-26.515 32.682-57.655 53.647t-70.605 20.966q-41.931 0-67.213-30.523t-34.532-82.938q-20.965 5.55-44.397 5.55-20.35 0-45.015-3.083 8.633 38.848 14.183 86.945t5.55 78.93q0 66.596-21.583 101.744t-56.73 35.148q-44.398 0-63.205-62.896T30.08 655.977q0-118.394 25.59-240.18t70.297-201.639 98.353-79.854q28.982 0 45.323 25.899t16.34 69.68q0 144.909-173.273 315.717-6.167 60.43-6.167 106.06 0 63.514 4.317 130.419t14.182 66.905q18.5 0 18.5-64.13 0-48.098-6.475-93.112t-17.574-94.962q-.617-8.016 5.24-20.349t14.492-21.582 15.416-9.25q8.016 0 25.282 1.234 19.732 1.233 29.598 1.233 22.2 0 45.631-6.166v-1.85q0-75.23 19.424-171.425t57.347-165.258 90.337-69.063q29.599 0 46.556 27.44t16.958 78.621q0 49.948-18.5 113.461t-53.647 121.785T331 569.031q2.467 43.782 12.95 61.972t30.831 18.191q25.282 0 44.398-14.49t48.714-49.64q7.4-8.633 16.65-8.633m-273.17-381.08q-11.1 0-27.44 37.615t-32.373 99.586-27.749 131.035q49.33-56.114 75.846-116.852t27.132-113.77q0-37.614-15.416-37.614m197.323 0q-12.949 0-29.907 45.94t-30.523 116.235-16.65 137.51q30.833-31.449 52.415-76.772t31.757-91.878 10.174-84.17q0-46.865-17.266-46.865"/>
    <path d="M532.639 385.891q-25.899 0-38.848-12.024t-12.95-33.607 16.958-36.073 42.24-14.491q22.815 0 36.998 11.1c9.456 7.4 14.177 17.882 14.177 31.448 0 16.443-5.33 29.496-16.027 39.156q-16.033 14.491-42.548 14.491m-4.933 331.133q-40.081 0-58.272-28.365t-18.19-75.23q0-27.748 7.09-71.221t18.191-81.087q5.55-19.733 14.8-27.132t29.598-7.4q31.448 0 31.448 20.966 0 15.415-11.716 71.53-14.8 67.83-14.8 91.878 0 18.499 4.934 28.365t16.65 9.866q11.099 0 27.748-15.416c11.098-10.277 25.903-26.515 44.402-48.714 4.93-5.755 10.47-8.633 16.637-8.633 5.347 0 9.57 2.467 12.653 7.4q4.625 7.4 4.625 20.349c0 16.443-3.902 29.187-11.722 38.231-40.692 49.742-78.722 74.613-114.076 74.613"/>
    <path d="M847.744 525.867c0 32.476-7.499 63.205-22.513 92.187-14.999 28.982-34.943 52.517-59.817 70.605s-51.483 27.543-79.858 28.365q-7.997 119.01-36.372 198.865t-83.247 79.854q-33.298 0-49.33-24.049t-16.033-66.596q0-60.43 27.748-140.901t85.711-177.283c0-60.02-.417-101.745-1.236-125.177-.402-11.921 4.32-21.377 14.179-28.365 9.876-6.989 22.208-10.483 37.014-10.483 8.623 0 14.902 1.747 18.804 5.242s6.054 10.38 6.472 20.657c0 10.277.209 17.882.61 22.815 13.168-16.443 26.11-28.262 38.86-35.456 12.735-7.194 26.304-10.791 40.692-10.791 23.028 0 41.832 9.25 56.429 27.748 14.58 18.5 21.887 42.754 21.887 72.763m-159.088 131.96q22.184-4.933 40.996-24.357t29.917-48.098c7.386-19.115 11.096-39.156 11.096-60.121 0-12.333-2.473-21.685-7.403-28.057s-11.514-9.558-19.736-9.558c-14.79 0-32.678 15.621-53.65 46.864-.401 18.088-.61 44.603-.61 79.546 0 18.91-.209 33.504-.61 43.781M570.87 935.313q16.643 0 27.747-72.455c7.403-48.303 12.124-108.425 14.18-180.366-17.664 41.11-31.651 80.369-41.927 117.778q-15.416 56.113-15.416 94.345 0 19.732 4.625 30.215t10.791 10.483"/>
    <path fill="#e4e4e4" d="M1256.963 712.842c-15.416 0-39.62-5.448-41.998-22.7-5.9-42.426 36.21-87.835 40.27-118.31 5.9-44.207-28.295-78.404-17.764-111.743 3.664-11.774 9.659-20.402 17.97-25.884q12.49-8.222 35.02-8.222c8.12 0 13.814 1.015 17.066 3.045 3.235 2.03 4.869 5.888 4.869 11.572q0 9.745-9.136 43.851-6.09 24.362-9.754 42.329-3.64 17.967-6.09 44.764c10.975-31.67 24.06-58.468 39.286-80.393s30.865-38.269 46.9-49.028 31.165-16.14 45.376-16.14 24.251 3.248 30.151 9.745c5.885 6.496 8.819 16.444 8.819 29.843q0 19.49-11.563 70.649-4.877 21.925-6.709 32.888 30.453-74.912 67.614-109.019c24.758-22.737 47.914-34.106 69.421-34.106q39.588 0 39.588 39.588c0 15.835-4.457 44.46-13.386 85.875-7.724 35.324-11.578 58.671-11.578 70.04q0 24.362 17.652 24.362 12.205 0 28.93-14.922 16.748-14.921 44.774-48.419c4.87-5.684 10.357-8.526 16.447-8.526 5.282 0 9.437 2.436 12.483 7.308q4.567 7.309 4.567 20.099c0 16.24-3.854 28.828-11.578 37.76-17.462 21.52-36.225 39.182-56.336 52.987q-30.143 20.707-68.518 20.707c-20.698 0-36.336-5.988-46.9-17.966-10.546-11.978-15.828-29.336-15.828-52.074 0-11.368 2.84-31.67 8.533-60.904 5.266-25.58 7.914-43.242 7.914-52.987 0-6.496-2.236-9.744-6.693-9.744-5.281 0-12.8 6.8-22.537 20.403-9.755 13.602-19.493 31.568-29.247 53.9q-14.608 33.497-23.743 70.649c-4.473 19.49-9.644 32.482-15.528 38.979-5.9 6.496-15.337 9.744-28.327 9.744-13.402 0-23.442-6.395-30.15-19.184q-10.04-19.185-10.04-46.592 0-23.144 6.09-66.995c3.252-25.986 4.87-43.039 4.87-51.16q0-9.744-6.71-9.744c-6.074 0-13.798 7.308-23.14 21.925s-18.367 33.295-27.09 56.032c-8.739 22.738-15.733 45.07-21.015 66.995-4.473 19.083-9.643 31.975-15.543 38.674-5.884 6.7-15.115 10.05-27.709 10.05"/>
    <path fill="#e4e4e4" d="M1884.897 592.252c5.265 0 9.437 2.436 12.482 7.308q4.568 7.309 4.568 20.099c0 14.617-3.458 27.204-10.357 37.76-11.372 17.46-26.281 31.062-44.759 40.806q-27.716 14.617-66.09 14.617-58.454 0-90.738-35.02c-21.523-23.346-32.292-54.915-32.292-94.706 0-28.016 5.9-54.103 17.668-78.262s28.121-43.343 49.025-57.554c20.92-14.211 44.568-21.317 70.96-21.317 23.553 0 42.427 7.004 56.638 21.012q21.316 21.012 21.316 56.946c0 28.016-10.04 52.073-30.15 72.171-20.096 20.099-54.307 36.035-102.618 47.81 9.738 18.677 26.186 28.016 49.326 28.016q24.98 0 41.11-11.572c10.77-7.714 23.252-20.707 37.463-38.978 4.87-6.09 10.357-9.136 16.448-9.136m-99.89-106.583q-22.53 0-38.065 26.19c-10.357 17.458-15.528 38.572-15.528 63.34v1.218c23.95-5.685 42.84-14.211 56.638-25.58 13.815-11.369 20.714-24.565 20.714-39.588 0-7.714-2.141-13.906-6.392-18.576q-6.4-7.004-17.367-7.004"/>
    <path fill="#01afab" d="M1195.254 614.722c-10.823 0-20.017-4.004-27.569-12.01s-11.34-17.31-11.34-27.911q0-20.298 14.547-35.86c9.698-10.375 21.543-15.562 35.522-15.562 11.056 0 20.017 3.72 26.897 11.164q10.319 11.164 10.319 27.74 0 21.314-14.548 36.876t-33.828 15.563"/>
    <path d="M1192.223 427.031c9.452 0 16.042 1.235 19.756 3.704q5.545 3.703 5.545 12.345c0 9.876-5.353 45.06-16.042 105.552-9.468 58.022-15.03 92.383-16.67 103.082-15.222 105.758-36.215 189.5-62.963 251.225s-62.337 92.59-106.783 92.59c-20.993 0-38.065-6.482-51.23-19.444s-19.755-29.937-19.755-50.924q0-29.011 13.261-59.257 13.286-30.246 49.381-69.442c24.08-26.13 58.142-56.068 102.17-89.812l1.848-14.197c2.878-15.225 6.173-37.035 9.87-65.43-8.23 29.63-19.74 52.16-34.56 67.59s-30.445 23.148-46.905 23.148q-27.777 0-45.379-25.616c-11.718-17.078-17.585-38.373-17.585-63.887q0-46.294 6.172-84.873c4.115-25.72 10.899-52.982 20.367-81.787 4.115-12.345 9.87-21.193 17.28-26.542s19.145-8.025 35.187-8.025c9.05 0 15.335 1.44 18.823 4.321q5.256 4.32 5.256 12.963 0 4.938-6.8 33.332c-4.114 15.225-7.41 29.01-9.869 41.356a1456 1456 0 0 0-8.648 48.455c-2.46 15.432-3.697 28.085-3.697 37.962 0 15.637 4.308 23.456 12.956 23.456q9.259 0 23.147-18.518c9.26-12.345 19.145-31.069 29.626-56.171 10.496-25.102 20.687-55.965 30.557-92.59 3.296-12.344 8.343-21.192 15.126-26.541s16.975-8.025 30.558-8.025m-170.374 508.623q15.432 0 34.577-35.8c12.747-23.868 25.51-63.579 38.257-119.132q-47.524 40.122-68.815 73.145c-14.194 22.016-21.299 41.254-21.299 57.714 0 6.996 1.334 12.757 4.019 17.283q4.002 6.79 13.261 6.79"/>
    <path fill="none" stroke="#01afab" stroke-linecap="round" stroke-miterlimit="1.5" stroke-width="48.002" d="M914.093 439.874s-125.388 146.024-82.027 117.703c242.23-158.209 193.645 211.7-74.06 104.131"/>
    <path d="M775.257 586.34s64.988 2.732 49.974 31.714c-14.999 28.982-34.943 52.517-59.817 70.605s-58.035-29.093-58.035-29.093z"/>
</svg>
