<svg xmlns="http://www.w3.org/2000/svg" viewBox="618.35 59.55 686.46 907.82">
    <path fill="#01afab" d="M785.977 717.192c-.772-10.02 104.138-35.424 110.69 22.762 6.55 58.184 10.268 127.927-48.531 190.424-58.801 62.5-229.781 56.55-229.781-102.209q0-221.954 47.974-450.268c31.984-152.207 145.86-351.19 326.458-313.756 180.6 37.435-2.966 343.62-219.526 557.098-7.707 75.526-31.03 174.68-8.054 192.973s34.641-34.6 20.77-97.024m146.715-491.051c-41.2-22.115-123.98 155.035-138.624 241.352 61.654-70.13 181.265-218.465 138.624-241.352"/>
    <path d="M1002.02 746.45c-81.393-19.799 236.302-135.325 98.823-240.747-35.022 55.117-69.902 100.494-102.823 136.124q-49.383 53.444-106.34 100.365-28.541 24.194-57.836 21.78-23.437-1.931-36.697-19.984t-11.207-42.955q2.414-29.296 24.973-52.505l20.975-21.868q88.771-92.966 135.098-154.035 29.865-40.308 61.791-96.666t84.202-153.807q33.144-62.156 121.025-54.913c27.338 2.253 46.191 6.265 56.533 12.033s15.055 14.022 14.17 24.763c-.483 5.859-3.188 14.977-8.144 27.348-4.955 12.374-11.36 24.625-19.24 36.758-20.476 33.705-97.77 137-81.824 155.577 127.939 148.85 40.467 379.64-193.478 322.731"/>
</svg>
